<?xml version="1.0" encoding="utf-8"?>
<!-- Generator: Adobe Illustrator 21.0.2, SVG Export Plug-In . SVG Version: 6.00 Build 0)  -->
<svg version="1.1" id="Layer_1" xmlns="http://www.w3.org/2000/svg" xmlns:xlink="http://www.w3.org/1999/xlink" x="0px" y="0px"
	 viewBox="0 0 22.5 14" style="enable-background:new 0 0 22.5 14;" xml:space="preserve">
<style type="text/css">
	.st0{fill:#FFFFFF;}
</style>
<path id="Forma_1_copy_2" class="st0" d="M13.5,0.1C13.3,0,13,0,12.8,0.1L5.3,3.1H0.7C0.3,3.1,0,3.4,0,3.8v6.3
	c0,0.4,0.3,0.7,0.7,0.7h4.6l7.5,3.1c0.1,0,0.2,0.1,0.3,0.1c0.4,0,0.7-0.3,0.7-0.7V0.7C13.8,0.5,13.7,0.3,13.5,0.1z M1.5,4.6h3.2v4.9
	H1.5V4.6z M12.3,12.2L6.2,9.7V4.3l6.2-2.5V12.2z M19,5c-0.3-0.5-0.5-0.9-0.8-1.3c-0.3-0.3-0.7-0.3-1,0c-0.3,0.3-0.3,0.7,0,1l0,0
	C17.6,5.4,17.9,6.2,18,7c-0.1,0.8-0.4,1.6-0.9,2.3c-0.3,0.3-0.3,0.7,0,1c0.1,0.1,0.3,0.2,0.5,0.2c0.2,0,0.4-0.1,0.5-0.2
	C18.5,9.9,18.7,9.5,19,9C19.5,7.7,19.5,6.3,19,5z M22,9c0.6-1.3,0.6-2.7,0-4c-0.7-1.6-1.7-3.1-2.8-4.3c-0.3-0.3-0.7-0.3-1,0
	s-0.3,0.7,0,1c0,0,2.9,3.3,2.9,5.3s-2.9,5.3-2.9,5.3c-0.3,0.3-0.3,0.7,0,1c0.1,0.1,0.3,0.2,0.5,0.2c0.2,0,0.4-0.1,0.5-0.2
	C20.3,12,21.3,10.6,22,9z"/>
</svg>
