<?xml version="1.0" encoding="utf-8"?>
<!-- Generator: Adobe Illustrator 21.0.2, SVG Export Plug-In . SVG Version: 6.00 Build 0)  -->
<svg version="1.1" id="Layer_1" xmlns="http://www.w3.org/2000/svg" xmlns:xlink="http://www.w3.org/1999/xlink" x="0px" y="0px"
	 viewBox="0 0 23 14" style="enable-background:new 0 0 23 14;" xml:space="preserve">
<style type="text/css">
	.st0{fill:#DD374A;}
</style>
<path id="Forma_1_copy" class="st0" d="M13.5,0.1C13.3,0,13,0,12.8,0.1L5.3,3.1H0.7C0.3,3.1,0,3.4,0,3.8v6.3c0,0.4,0.3,0.7,0.7,0.7
	h4.6l7.5,3.1c0.1,0,0.2,0.1,0.3,0.1c0.4,0,0.7-0.3,0.7-0.7V0.7C13.8,0.5,13.7,0.3,13.5,0.1z M1.5,4.6h3.2v4.9H1.5V4.6z M12.3,12.2
	L6.2,9.7V4.3l6.2-2.5V12.2z M20.5,7l2.3-2.3c0.3-0.3,0.3-0.7,0-1c0,0,0,0,0,0c-0.3-0.3-0.8-0.3-1,0L19.4,6l-2.3-2.3
	c-0.3-0.3-0.7-0.3-1,0c-0.3,0.3-0.3,0.7,0,1L18.4,7l-2.3,2.3c-0.3,0.3-0.3,0.7,0,1c0.1,0.1,0.3,0.2,0.5,0.2c0.2,0,0.4-0.1,0.5-0.2
	L19.4,8l2.3,2.3c0.1,0.1,0.3,0.2,0.5,0.2c0.4,0,0.7-0.3,0.7-0.7c0-0.2-0.1-0.4-0.2-0.5L20.5,7z"/>
</svg>
